<?xml version="1.0" encoding="utf-8"?>
<!-- Generator: Adobe Illustrator 16.0.0, SVG Export Plug-In . SVG Version: 6.00 Build 0)  -->
<!DOCTYPE svg PUBLIC "-//W3C//DTD SVG 1.1//EN" "http://www.w3.org/Graphics/SVG/1.1/DTD/svg11.dtd">
<svg version="1.1" id="Layer_1" xmlns="http://www.w3.org/2000/svg" xmlns:xlink="http://www.w3.org/1999/xlink" x="0px" y="0px"
	 width="159px" height="159px" viewBox="0 0 159 159" enable-background="new 0 0 159 159" xml:space="preserve">
<g>
	<path fill-rule="evenodd" clip-rule="evenodd" fill="#F7903D" d="M-102.915,32.301c0.334,0.482,0.648,0.979,1.003,1.446
		c1.126,1.486,1.048,2.868-0.227,3.828c-1.534,1.156-2.598,0.962-3.867-0.67c-2.576-3.316-5.164-6.623-7.856-10.075
		c-2.279,2.854-4.522,5.661-6.763,8.47c-0.739,0.925-1.41,1.914-2.223,2.771c-1.779,1.883-2.897,3.583-1.764,6.564
		c0.996,2.63-0.603,5.194-2.854,6.936c-2.248,1.743-4.775,2.201-7.484,1.052c-3.642-1.543-5.536-5.17-4.661-8.952
		c0.843-3.643,4.072-5.906,8.085-5.789c0.811,0.024,2.175,0.816,2.221-1.013l-0.029,0.033c2.346-1.925,3.834-4.575,5.783-6.838
		c1.814-2.107,3.442-4.374,5.254-6.485c0.827-0.965,0.751-1.672,0.008-2.606c-3.061-3.847-6.073-7.727-9.092-11.603
		c-1.098-1.406-0.896-2.645,0.58-3.781c1.21-0.929,2.656-0.638,3.674,0.687c2.988,3.887,5.993,7.76,9.112,11.79
		c2.989-3.721,5.909-7.354,8.827-10.986c0.407-0.507,0.762-1.061,1.205-1.532c1.42-1.507,1.916-2.863,1.247-5.203
		c-1.538-5.385,3.051-10.449,8.872-10c-1.376,1.726-2.648,3.317-3.918,4.914c-1.887,2.367-1.797,3.022,0.604,4.856
		c0.8,0.611,1.583,1.247,2.36,1.889c1.283,1.062,2.361,0.78,3.333-0.457c1.432-1.812,2.878-3.612,4.419-5.546
		c0.822,1.393,0.707,2.825,0.395,4.208c-1.025,4.563-5.048,7.177-9.715,6.402c-0.699-0.117-1.313-0.191-1.883,0.537
		c-3.786,4.86-7.61,9.688-11.469,14.489c-0.576,0.714-0.677,1.131-0.04,1.905c2.178,2.646,4.245,5.383,6.354,8.084
		C-103.252,31.852-103.082,32.075-102.915,32.301z M-135.797,46.023c-0.088-1.992,1.158-3.585,2.965-3.789
		c1.843-0.207,3.535,0.95,3.87,2.642c0.415,2.111-0.475,3.584-2.506,4.261c-0.526,0.175-1.042,0.162-1.574,0.19
		c-0.798,0.045-0.625,0.816-0.722,1.239c-0.109,0.462-0.048,1.167,0.43,1.442c0.633,0.364,0.694-0.307,0.933-0.696
		c0.471-0.775,1.062-0.63,1.593-0.048c0.777,0.852,1.072,0.447,1.14-0.436c0.066-0.948,0.409-1.397,1.45-1.107
		c1.292,0.363,1.225-0.32,0.719-1.11c-0.436-0.672-0.234-1.177,0.387-1.376c1.423-0.456,1.377-0.855,0.164-1.602
		c-0.458-0.285-0.362-0.914,0.08-1.402c0.647-0.718,0.699-1.288-0.522-1.29c-0.936,0-1.298-0.299-0.953-1.319
		c0.234-0.69,0.08-1.487-0.939-0.829c-0.978,0.63-1.454,0.187-1.727-0.659c-0.309-0.964-0.679-1.1-1.188-0.193
		c-0.588,1.033-1.094,1.053-1.849,0.118c-0.469-0.582-0.974-0.412-0.976,0.41c-0.006,1.184-0.396,1.578-1.645,1.21
		c-0.837-0.246-1.047,0.325-0.572,1.037c0.578,0.869,0.393,1.438-0.653,1.647c-1.151,0.23-0.903,0.764-0.227,1.244
		c0.565,0.399,0.896,0.794,0.507,1.446c-0.258,0.424-1.012,0.811-0.451,1.302c0.499,0.439,1.236,0.009,1.812-0.213
		C-135.083,47.694-135.877,46.75-135.797,46.023z"/>
	<path fill-rule="evenodd" clip-rule="evenodd" fill="#F7903D" d="M-153.464,22.021c0-5.051,0.03-10.102-0.026-15.151
		c-0.012-1.082,0.259-1.427,1.379-1.414c4.989,0.057,9.981,0.054,14.971,0.002c1.064-0.012,1.438,0.237,1.433,1.372
		c-0.015,2.943,0.046,2.944-2.858,2.944c-2.912,0-5.823,0.038-8.734-0.022c-1.02-0.02-1.334,0.312-1.304,1.318
		c0.066,2.137,0.072,4.28-0.002,6.416c-0.038,1.099,0.337,1.438,1.421,1.419c3.269-0.056,6.537,0.048,9.803-0.054
		c1.34-0.041,1.865,0.33,1.656,1.674c-0.07,0.463-0.063,0.955-0.002,1.422c0.15,1.139-0.368,1.393-1.428,1.373
		c-3.386-0.061-6.772,0.015-10.158-0.045c-1.025-0.018-1.304,0.305-1.29,1.305c0.05,4.218-0.025,8.437,0.048,12.656
		c0.021,1.198-0.366,1.471-1.502,1.463c-3.405-0.023-3.405,0.026-3.405-3.311C-153.464,30.933-153.464,26.477-153.464,22.021z"/>
	<path fill-rule="evenodd" clip-rule="evenodd" fill="#F7903D" d="M-129.305,36.869c-1.186,0.022-2.451-0.213-3.537,0.128
		c-1.559,0.487-1.49-0.238-1.488-1.327c0.021-9.438,0.038-18.877-0.021-28.316c-0.007-1.306,0.428-1.556,1.618-1.54
		c3.394,0.042,3.399-0.01,3.399,3.306c0.002,9.26,0,18.521,0,27.782L-129.305,36.869z"/>
	<path fill-rule="evenodd" clip-rule="evenodd" d="M-163.423,15.974c-0.423,2.105-0.762,3.782-1.101,5.452
		c-0.576-0.049-0.473-0.346-0.473-0.518c-0.01-1.654-0.195-3.215-1.979-3.98c-2.023-0.867-3.701-0.123-5.156,1.243
		c-1.692,1.589-2.386,3.726-2.834,5.918c-0.33,1.611-0.564,3.242-0.034,4.896c0.528,1.638,1.899,2.844,3.571,2.892
		c1.517,0.042,2.787-0.252,3.299-2.005c0.567-1.944,0.471-2.185-1.694-2.364c0.659-0.756,1.446-0.371,2.119-0.432
		c0.708-0.064,1.437-0.13,2.136-0.035c1.294,0.174,1.963-0.231,2.392-1.558c0.482-1.485,1.635-2.594,3.112-3.21
		c3.713-1.546,6.354,1.128,6.182,4.021c-0.236,3.893-3.571,6.864-7.049,5.969c-1.803-0.465-2.483-1.809-2.936-3.423
		c-0.113-0.416,0.35-1.153-0.576-1.233c-0.826-0.072-1.011,0.574-1.184,1.096c-0.905,2.733-2.169,3.654-5.398,3.837
		c-2.804,0.158-5.648-1.285-6.381-3.571c-1.148-3.573-0.345-6.88,2.059-9.735c2.556-3.041,5.811-3.883,9.531-2.555
		C-164.932,16.995-164.367,16.839-163.423,15.974z M-156.072,26.015c-0.035-1.628,0.251-2.918-1.241-3.47
		c-1.212-0.45-2.132,0.137-2.744,1.051c-1.353,2.018-1.993,4.262-1.366,6.681c0.467,1.807,2.237,2.216,3.483,0.834
		C-156.526,29.54-156.14,27.589-156.072,26.015z"/>
	<path fill-rule="evenodd" clip-rule="evenodd" d="M-87.75,30.146c-1.088,1.913-2.803,2.653-4.838,2.413
		c-1.067-0.128-1.895-0.635-1.803-2.098c0.23-3.705,1.299-7.261,1.695-10.974c-0.635-0.062-1.311-0.128-1.989-0.194
		c1.919-0.721,3.651-1.618,4.897-3.226c1.033,0.85-0.968,2.167,0.639,2.572c0.892,0.224,1.881,0.039,2.982,0.039
		c-0.553,1.01-1.388,0.731-2.051,0.706c-1.184-0.045-1.803,0.047-1.988,1.597c-0.339,2.84-1.116,5.63-1.295,8.508
		c-0.044,0.692-0.318,1.478,0.491,1.91c0.739,0.396,1.353-0.172,1.977-0.438C-88.573,30.763-88.175,30.422-87.75,30.146z"/>
	<path fill-rule="evenodd" clip-rule="evenodd" d="M-102.915,32.301c-0.167-0.226-0.337-0.45-0.507-0.676
		c1.439,0.188,2.023-0.541,2.235-1.893c0.437-2.772,0.931-5.538,1.476-8.29c0.309-1.561-0.865-1.367-1.854-1.587
		c1.627-0.548,3.228-0.652,4.728-1.51c0.05,3.068-0.833,5.837-1.234,8.669c-0.08,0.575-0.14,1.161-0.236,1.737
		c-0.408,2.365-0.412,2.364,1.699,3.289C-98.873,32.47-100.914,32.095-102.915,32.301z"/>
</g>
<g>
	<path fill-rule="evenodd" clip-rule="evenodd" fill="#F7903D" d="M121.331,95.045c0.471,0.684,0.918,1.387,1.419,2.049
		c1.594,2.108,1.488,4.065-0.321,5.427c-2.175,1.637-3.682,1.363-5.48-0.951c-3.652-4.7-7.319-9.388-11.134-14.278
		c-3.23,4.044-6.41,8.022-9.587,12.003c-1.046,1.312-1.997,2.712-3.146,3.927c-2.525,2.668-4.108,5.077-2.504,9.303
		c1.414,3.727-0.854,7.362-4.042,9.831c-3.188,2.468-6.767,3.119-10.608,1.491c-5.16-2.186-7.846-7.327-6.605-12.687
		c1.195-5.163,5.772-8.372,11.458-8.205c1.147,0.034,3.084,1.156,3.149-1.435l-0.044,0.045c3.325-2.727,5.434-6.485,8.196-9.691
		c2.572-2.987,4.88-6.2,7.447-9.192c1.174-1.368,1.064-2.37,0.012-3.693c-4.334-5.451-8.606-10.951-12.887-16.444
		c-1.552-1.992-1.266-3.75,0.825-5.358c1.712-1.317,3.761-0.905,5.205,0.972c4.235,5.509,8.497,11,12.914,16.71
		c4.24-5.276,8.378-10.421,12.512-15.571c0.577-0.719,1.081-1.504,1.71-2.172c2.009-2.135,2.712-4.057,1.765-7.373
		c-2.181-7.633,4.325-14.811,12.575-14.172c-1.95,2.445-3.755,4.702-5.556,6.963c-2.67,3.355-2.546,4.283,0.86,6.884
		c1.135,0.867,2.245,1.768,3.346,2.677c1.818,1.503,3.345,1.104,4.724-0.646c2.026-2.57,4.077-5.121,6.261-7.86
		c1.163,1.972,1.002,4.002,0.561,5.963c-1.455,6.467-7.156,10.173-13.768,9.073c-0.992-0.165-1.865-0.269-2.669,0.763
		c-5.366,6.886-10.79,13.729-16.258,20.534c-0.813,1.013-0.958,1.603-0.055,2.701c3.085,3.751,6.016,7.628,9.006,11.457
		C120.853,94.407,121.092,94.726,121.331,95.045z M74.729,114.491c-0.126-2.822,1.641-5.08,4.2-5.368
		c2.61-0.293,5.011,1.346,5.483,3.746c0.59,2.991-0.669,5.078-3.549,6.037c-0.749,0.249-1.479,0.229-2.231,0.271
		c-1.132,0.064-0.886,1.155-1.025,1.755c-0.153,0.655-0.064,1.653,0.612,2.043c0.895,0.516,0.981-0.435,1.318-0.986
		c0.668-1.097,1.507-0.893,2.259-0.069c1.103,1.208,1.523,0.635,1.616-0.616c0.099-1.345,0.58-1.982,2.055-1.569
		c1.833,0.514,1.739-0.454,1.018-1.573c-0.615-0.954-0.329-1.669,0.552-1.951c2.016-0.646,1.951-1.21,0.232-2.271
		c-0.652-0.403-0.516-1.293,0.109-1.986c0.919-1.019,0.994-1.826-0.738-1.827c-1.324-0.001-1.838-0.424-1.347-1.87
		c0.332-0.979,0.11-2.109-1.335-1.176c-1.383,0.893-2.06,0.265-2.445-0.932c-0.44-1.366-0.96-1.559-1.688-0.274
		c-0.83,1.464-1.546,1.493-2.616,0.168c-0.666-0.826-1.381-0.584-1.386,0.58c-0.006,1.678-0.56,2.236-2.333,1.715
		c-1.183-0.348-1.478,0.46-0.808,1.468c0.819,1.233,0.556,2.041-0.923,2.336c-1.632,0.326-1.282,1.083-0.323,1.762
		c0.799,0.566,1.27,1.126,0.715,2.049c-0.362,0.601-1.433,1.15-0.638,1.847c0.708,0.622,1.752,0.011,2.57-0.303
		C75.74,116.86,74.611,115.521,74.729,114.491z"/>
	<path fill-rule="evenodd" clip-rule="evenodd" fill="#F7903D" d="M49.688,80.475c0-7.158,0.044-14.316-0.035-21.473
		c-0.018-1.533,0.367-2.023,1.952-2.005c7.073,0.083,14.147,0.077,21.22,0.003c1.51-0.016,2.037,0.336,2.029,1.944
		c-0.021,4.171,0.064,4.172-4.051,4.172c-4.126,0-8.253,0.055-12.378-0.03c-1.446-0.03-1.892,0.442-1.848,1.868
		c0.093,3.029,0.103,6.065-0.002,9.093c-0.054,1.556,0.479,2.039,2.013,2.012c4.63-0.08,9.266,0.068,13.893-0.076
		c1.897-0.059,2.645,0.467,2.35,2.371c-0.102,0.658-0.093,1.354-0.005,2.017c0.213,1.615-0.518,1.974-2.021,1.947
		c-4.799-0.087-9.6,0.021-14.399-0.064c-1.453-0.026-1.844,0.432-1.827,1.85c0.07,5.978-0.036,11.958,0.067,17.936
		c0.029,1.699-0.52,2.086-2.131,2.075c-4.825-0.032-4.825,0.037-4.825-4.692C49.688,93.106,49.688,86.791,49.688,80.475z"/>
	<path fill-rule="evenodd" clip-rule="evenodd" fill="#F7903D" d="M83.93,101.519c-1.681,0.031-3.476-0.303-5.015,0.179
		c-2.209,0.691-2.114-0.337-2.111-1.88c0.03-13.377,0.056-26.754-0.026-40.131c-0.011-1.851,0.601-2.205,2.292-2.184
		c4.81,0.06,4.819-0.013,4.82,4.686c0.002,13.125-0.002,26.25-0.003,39.375L83.93,101.519z"/>
	<path fill-rule="evenodd" clip-rule="evenodd" fill="#FFFFFF" d="M35.576,71.906c-0.603,2.982-1.083,5.36-1.561,7.727
		c-0.816-0.069-0.67-0.491-0.671-0.735c-0.012-2.344-0.275-4.555-2.803-5.639c-2.868-1.23-5.246-0.175-7.307,1.759
		c-2.4,2.253-3.383,5.28-4.019,8.389c-0.467,2.284-0.8,4.594-0.046,6.939c0.746,2.322,2.688,4.031,5.061,4.099
		c2.146,0.062,3.948-0.357,4.673-2.84c0.805-2.757,0.666-3.098-2.402-3.352c0.936-1.071,2.052-0.525,3.004-0.612
		c1.005-0.091,2.038-0.183,3.027-0.05c1.835,0.247,2.781-0.326,3.39-2.209c0.682-2.105,2.318-3.677,4.409-4.548
		c5.263-2.192,9.007,1.6,8.759,5.699c-0.333,5.517-5.059,9.728-9.988,8.458c-2.556-0.658-3.518-2.563-4.157-4.851
		c-0.165-0.589,0.495-1.634-0.819-1.747c-1.17-0.101-1.433,0.814-1.678,1.552c-1.284,3.874-3.073,5.18-7.651,5.438
		c-3.975,0.224-8.003-1.819-9.043-5.062c-1.625-5.063-0.486-9.75,2.916-13.796c3.625-4.31,8.237-5.504,13.511-3.623
		C33.437,73.352,34.238,73.132,35.576,71.906z M45.99,86.136c-0.047-2.308,0.357-4.137-1.755-4.919
		c-1.72-0.637-3.022,0.194-3.891,1.49c-1.917,2.86-2.824,6.039-1.937,9.468c0.663,2.561,3.172,3.141,4.938,1.181
		C45.35,91.131,45.899,88.366,45.99,86.136z"/>
	<path fill-rule="evenodd" clip-rule="evenodd" fill="#FFFFFF" d="M142.822,91.99c-1.54,2.713-3.973,3.762-6.855,3.419
		c-1.514-0.18-2.686-0.899-2.557-2.973c0.326-5.25,1.841-10.292,2.405-15.554c-0.899-0.088-1.86-0.181-2.82-0.275
		c2.72-1.021,5.174-2.293,6.938-4.572c1.466,1.205-1.37,3.071,0.909,3.645c1.26,0.318,2.666,0.057,4.227,0.057
		c-0.784,1.431-1.968,1.035-2.908,0.999c-1.676-0.064-2.556,0.067-2.817,2.263c-0.481,4.026-1.581,7.979-1.835,12.058
		c-0.062,0.981-0.449,2.094,0.696,2.707c1.048,0.561,1.917-0.245,2.801-0.622C141.656,92.865,142.219,92.382,142.822,91.99z"/>
	<path fill-rule="evenodd" clip-rule="evenodd" fill="#FFFFFF" d="M121.331,95.045c-0.239-0.319-0.479-0.638-0.72-0.957
		c2.04,0.266,2.87-0.768,3.17-2.684c0.617-3.93,1.315-7.848,2.089-11.749c0.438-2.211-1.225-1.938-2.628-2.25
		c2.304-0.777,4.576-0.924,6.701-2.141c0.069,4.348-1.181,8.273-1.75,12.287c-0.116,0.814-0.196,1.645-0.336,2.461
		c-0.577,3.352-0.58,3.351,2.409,4.662C127.056,95.283,124.167,94.753,121.331,95.045z"/>
	<path fill-rule="evenodd" clip-rule="evenodd" fill="#FFFFFF" d="M129.856,65.638c1.374-0.149,1.67,0.663,1.601,1.854
		c-0.084,1.44-0.95,2.114-2.254,2.167c-1.174,0.047-1.88-0.604-1.808-1.862C127.481,66.285,128.271,65.527,129.856,65.638z"/>
</g>
</svg>
