<?xml version="1.0" encoding="utf-8"?>
<!-- Generator: Adobe Illustrator 16.0.0, SVG Export Plug-In . SVG Version: 6.00 Build 0)  -->
<!DOCTYPE svg PUBLIC "-//W3C//DTD SVG 1.1//EN" "http://www.w3.org/Graphics/SVG/1.1/DTD/svg11.dtd">
<svg version="1.1" id="Layer_1" xmlns="http://www.w3.org/2000/svg" xmlns:xlink="http://www.w3.org/1999/xlink" x="0px" y="0px"
	 width="100px" height="100px" viewBox="0 0 100 100" enable-background="new 0 0 100 100" xml:space="preserve">
<g>
	<path fill-rule="evenodd" clip-rule="evenodd" fill="#F7903D" d="M78.245,60.581c0.334,0.482,0.648,0.979,1.003,1.446
		c1.126,1.486,1.048,2.868-0.227,3.828c-1.534,1.156-2.598,0.962-3.867-0.67c-2.576-3.316-5.164-6.623-7.856-10.075
		c-2.279,2.854-4.522,5.661-6.763,8.47c-0.739,0.925-1.41,1.914-2.223,2.771c-1.779,1.883-2.897,3.583-1.764,6.564
		c0.996,2.63-0.603,5.194-2.854,6.936c-2.248,1.743-4.775,2.201-7.484,1.052c-3.642-1.543-5.536-5.17-4.661-8.952
		c0.843-3.643,4.072-5.906,8.085-5.789c0.811,0.024,2.175,0.816,2.221-1.013l-0.029,0.033c2.346-1.925,3.834-4.575,5.783-6.838
		c1.814-2.107,3.442-4.374,5.254-6.485c0.827-0.965,0.751-1.672,0.008-2.606c-3.061-3.847-6.073-7.727-9.092-11.603
		c-1.098-1.406-0.896-2.645,0.58-3.781c1.21-0.929,2.656-0.638,3.674,0.687c2.988,3.887,5.993,7.76,9.112,11.79
		c2.989-3.721,5.909-7.354,8.827-10.986c0.407-0.507,0.762-1.061,1.205-1.532c1.42-1.507,1.916-2.863,1.247-5.203
		c-1.538-5.385,3.051-10.449,8.872-10c-1.376,1.726-2.648,3.317-3.918,4.914c-1.887,2.367-1.797,3.022,0.604,4.856
		c0.8,0.611,1.583,1.247,2.36,1.889c1.283,1.062,2.361,0.78,3.333-0.457c1.432-1.812,2.878-3.612,4.419-5.546
		c0.822,1.393,0.707,2.825,0.395,4.208c-1.025,4.563-5.048,7.177-9.715,6.402c-0.699-0.117-1.313-0.191-1.883,0.537
		c-3.786,4.86-7.61,9.688-11.469,14.489c-0.576,0.714-0.677,1.131-0.04,1.905c2.178,2.646,4.245,5.383,6.354,8.084
		C77.908,60.131,78.078,60.355,78.245,60.581z M45.363,74.303c-0.088-1.992,1.158-3.585,2.965-3.789
		c1.843-0.207,3.535,0.95,3.87,2.642c0.415,2.111-0.475,3.584-2.506,4.261c-0.526,0.175-1.042,0.162-1.574,0.19
		c-0.798,0.045-0.625,0.816-0.722,1.239c-0.109,0.462-0.048,1.167,0.43,1.442c0.633,0.364,0.694-0.307,0.933-0.696
		c0.471-0.775,1.062-0.63,1.593-0.048c0.777,0.852,1.072,0.447,1.14-0.436c0.066-0.948,0.409-1.397,1.45-1.107
		c1.292,0.363,1.225-0.32,0.719-1.11c-0.436-0.672-0.234-1.177,0.387-1.376c1.423-0.456,1.377-0.855,0.164-1.602
		c-0.458-0.285-0.362-0.914,0.08-1.402c0.647-0.718,0.699-1.288-0.522-1.29c-0.936,0-1.298-0.299-0.953-1.319
		c0.234-0.69,0.08-1.487-0.939-0.829c-0.978,0.63-1.454,0.187-1.727-0.659c-0.309-0.964-0.679-1.1-1.188-0.193
		c-0.588,1.033-1.094,1.053-1.849,0.118c-0.469-0.582-0.974-0.412-0.976,0.41c-0.006,1.184-0.396,1.578-1.645,1.21
		c-0.837-0.246-1.047,0.325-0.572,1.037c0.578,0.869,0.393,1.438-0.653,1.647c-1.151,0.23-0.903,0.764-0.227,1.244
		c0.565,0.399,0.896,0.794,0.507,1.446c-0.258,0.424-1.012,0.811-0.451,1.302c0.499,0.439,1.236,0.009,1.812-0.213
		C46.077,75.974,45.283,75.029,45.363,74.303z"/>
	<path fill-rule="evenodd" clip-rule="evenodd" fill="#F7903D" d="M27.696,50.3c0-5.051,0.03-10.102-0.026-15.151
		c-0.012-1.082,0.259-1.427,1.379-1.414c4.989,0.057,9.981,0.054,14.971,0.002c1.064-0.012,1.438,0.237,1.433,1.372
		c-0.015,2.943,0.046,2.944-2.858,2.944c-2.912,0-5.823,0.038-8.734-0.022c-1.02-0.02-1.334,0.312-1.304,1.318
		c0.066,2.137,0.072,4.28-0.002,6.416c-0.038,1.099,0.337,1.438,1.421,1.419c3.269-0.056,6.537,0.048,9.803-0.054
		c1.34-0.041,1.865,0.33,1.656,1.674c-0.07,0.463-0.063,0.955-0.002,1.422c0.15,1.139-0.368,1.393-1.428,1.373
		c-3.386-0.061-6.772,0.015-10.158-0.045c-1.025-0.018-1.304,0.305-1.29,1.305c0.05,4.218-0.025,8.437,0.048,12.656
		c0.021,1.198-0.366,1.471-1.502,1.463c-3.405-0.023-3.405,0.026-3.405-3.311C27.696,59.213,27.696,54.757,27.696,50.3z"/>
	<path fill-rule="evenodd" clip-rule="evenodd" fill="#F7903D" d="M51.855,65.148c-1.186,0.022-2.451-0.213-3.537,0.128
		c-1.559,0.487-1.49-0.238-1.488-1.327c0.021-9.438,0.038-18.877-0.021-28.316c-0.007-1.306,0.428-1.556,1.618-1.54
		c3.394,0.042,3.399-0.01,3.399,3.306c0.002,9.26,0,18.521,0,27.782L51.855,65.148z"/>
	<path fill-rule="evenodd" clip-rule="evenodd" d="M17.737,44.254c-0.423,2.105-0.762,3.782-1.101,5.452
		c-0.576-0.049-0.473-0.346-0.473-0.518c-0.01-1.654-0.195-3.215-1.979-3.98c-2.023-0.867-3.701-0.123-5.156,1.243
		c-1.692,1.589-2.386,3.726-2.834,5.918c-0.33,1.611-0.564,3.242-0.034,4.896c0.528,1.638,1.899,2.844,3.571,2.892
		c1.517,0.042,2.787-0.252,3.299-2.005c0.567-1.944,0.471-2.185-1.694-2.364c0.659-0.756,1.446-0.371,2.119-0.432
		c0.708-0.064,1.437-0.13,2.136-0.035c1.294,0.174,1.963-0.231,2.392-1.558c0.482-1.485,1.635-2.594,3.112-3.21
		c3.713-1.546,6.354,1.128,6.182,4.021c-0.236,3.893-3.571,6.864-7.049,5.969c-1.803-0.465-2.483-1.809-2.936-3.423
		c-0.113-0.416,0.35-1.153-0.576-1.233c-0.826-0.072-1.011,0.574-1.184,1.096c-0.905,2.733-2.169,3.654-5.398,3.837
		c-2.804,0.158-5.648-1.285-6.381-3.571c-1.148-3.573-0.345-6.88,2.059-9.735c2.556-3.041,5.811-3.883,9.531-2.555
		C16.229,45.274,16.793,45.119,17.737,44.254z M25.088,54.294c-0.035-1.628,0.251-2.918-1.241-3.47
		c-1.212-0.45-2.132,0.137-2.744,1.051c-1.353,2.018-1.993,4.262-1.366,6.681c0.467,1.807,2.237,2.216,3.483,0.834
		C24.634,57.82,25.021,55.869,25.088,54.294z"/>
	<path fill-rule="evenodd" clip-rule="evenodd" d="M93.41,58.426c-1.088,1.913-2.803,2.653-4.838,2.413
		c-1.067-0.128-1.895-0.635-1.803-2.098c0.23-3.705,1.299-7.261,1.695-10.974c-0.635-0.062-1.311-0.128-1.989-0.194
		c1.919-0.721,3.651-1.618,4.897-3.226c1.033,0.85-0.968,2.167,0.639,2.572c0.892,0.224,1.881,0.039,2.982,0.039
		c-0.553,1.01-1.388,0.731-2.051,0.706c-1.184-0.045-1.803,0.047-1.988,1.597c-0.339,2.84-1.116,5.63-1.295,8.508
		c-0.044,0.692-0.318,1.478,0.491,1.91c0.739,0.396,1.353-0.172,1.977-0.438C92.587,59.043,92.985,58.702,93.41,58.426z"/>
	<path fill-rule="evenodd" clip-rule="evenodd" d="M78.245,60.581c-0.167-0.226-0.337-0.45-0.507-0.676
		c1.439,0.188,2.023-0.541,2.235-1.893c0.437-2.772,0.931-5.538,1.476-8.29c0.309-1.561-0.865-1.367-1.854-1.587
		c1.627-0.548,3.228-0.652,4.728-1.51c0.05,3.068-0.833,5.837-1.234,8.669c-0.08,0.575-0.14,1.161-0.236,1.737
		c-0.408,2.365-0.412,2.364,1.699,3.289C82.287,60.75,80.246,60.375,78.245,60.581z"/>
</g>
</svg>
